<?xml version="1.0" encoding="UTF-8"?>
<svg width="700pt" height="700pt" version="1.1" viewBox="0 0 700 700" xmlns="http://www.w3.org/2000/svg">
 <g>
  <path d="m86.695 494.58-1.5938-3.4727c41.672-73.461 74.723-151.48 98.496-232.52 3.1055-10.273 7.2383-29.457 12.027-51.672 12.543-58.223 29.727-137.95 46.723-141.18 33.578-6.375 44.574 86.734 55.199 176.78 9.3125 78.961 18.113 153.53 40.656 159.39 20.191 5.1836 31.32-50.398 42.086-104.22 11.801-58.98 24-119.96 48.773-101.95 17.816 12.961 23.422 51.02 29.359 91.32 7.0234 47.656 14.277 96.934 43.359 102.52 6.293 1.1836 12.664-12.344 19.402-26.684 8.0938-17.223 17.246-36.695 28.582-34.457 23.52 4.75 46.668 72.395 61.988 117.16l3.1445 9.1602-1.9766 2.6133-3.1484-9.1758c-14.156-41.363-37.855-110.59-60.258-115.12-10.137-2.1016-18.492 15.754-26.578 32.973-7.1562 15.23-13.957 29.578-21.391 28.172-30.688-5.8906-38.18-56.711-45.418-105.87-5.7656-39.129-11.211-76.098-27.895-88.234-22.559-16.398-33.812 39.781-45.719 99.281-10.586 52.906-21.516 107.54-41.617 107.54l-0.007813-0.015625c-1.0156-0.003906-2.0234-0.14062-3.0039-0.39844-24.184-6.2812-33.16-82.387-42.672-162.96-10.391-88.082-21.121-179.19-52.641-173.19-15.582 2.9609-32.441 81.211-44.75 138.35-4.8203 22.375-8.9844 41.688-12.172 52.238h-0.003906c-23.883 81.426-57.09 159.82-98.953 233.62z"/>
  <path d="m86.543 456.58-1.2852-3.4102c41.023-59.082 74.133-123.28 98.488-190.96 3.1016-8.4219 7.2344-24.168 12.02-42.402 12.543-47.824 29.727-113.31 46.609-115.95 33.473-5.0273 44.422 71.289 55.051 145.27 9.3125 64.801 18.102 126.01 40.738 130.84 20.375 4.3164 31.488-41.387 42.262-85.605 11.789-48.391 23.973-98.438 48.535-83.75 17.773 10.617 23.648 43.375 29.332 75.055 7.0156 39.117 14.27 79.566 43.457 84.168 6.4688 1.1211 12.828-10.16 19.59-21.996 8.0625-14.102 17.199-30.148 28.395-28.223 23.422 3.8867 46.562 59.441 61.883 96.207l3.1367 7.4883-1.6719 2.6875-3.1367-7.5039c-14.168-34.012-37.883-90.926-60.391-94.664-10.25-1.7031-18.648 12.977-26.77 27.168-7.125 12.457-13.867 24.215-21.207 23.062-30.582-4.8242-38.078-46.594-45.32-86.988-5.7539-32.098-11.199-62.418-27.922-72.414-22.793-13.613-34.035 32.605-45.953 81.523-11.098 45.555-22.594 92.645-44.445 87.992-24.098-5.1445-33.082-67.695-42.594-133.91-10.395-72.336-21.133-147.16-52.797-142.2-15.688 2.4492-32.551 66.727-44.859 113.66-4.8242 18.387-8.9922 34.262-12.188 42.945l0.003906 0.003906c-24.473 68.012-57.742 132.53-98.961 191.9z"/>
  <path d="m86.406 425.32-1.0117-3.2812c40.223-47.262 73.398-100.09 98.496-156.86 3.0977-6.9062 7.2266-19.836 12.004-34.801 12.543-39.262 29.719-93.031 46.504-95.188 33.25-4.3672 44.281 58.574 54.91 119.34 9.3047 53.199 18.098 103.45 40.824 107.43 20.484 3.5039 31.637-34 42.418-70.348 11.773-39.688 23.949-80.719 48.332-68.77 17.723 8.6992 23.602 35.629 29.289 61.672 7.0156 32.125 14.27 65.34 43.551 69.133 6.5234 0.75781 12.957-8.375 19.754-18.137 8.0391-11.547 17.137-24.605 28.223-23.117 23.328 3.1836 46.453 48.758 61.754 78.922l3.1367 6.168-1.3867 2.7148-3.1406-6.1875c-14.176-27.945-37.906-74.719-60.496-77.801-10.379-1.457-18.785 10.68-26.93 22.383-7.0977 10.191-13.809 19.785-21.043 18.871-30.484-3.9453-37.977-38.266-45.223-71.449-5.7539-26.34-11.184-51.223-27.965-59.457-22.945-11.266-34.227 26.742-46.16 66.977-11.09 37.387-22.574 76.109-44.289 72.238-23.996-4.2031-32.984-55.598-42.504-110.01-10.391-59.402-21.152-120.75-52.93-116.76-15.785 2.0312-32.652 54.836-44.969 93.395-4.8242 15.109-8.9961 28.156-12.195 35.301l0.003906 0.003906c-25.211 57.031-58.543 110.12-98.957 157.61z"/>
  <path d="m86.293 399.62-0.78516-3.1133 0.003907 0.003907c39.297-37.605 72.527-81.074 98.504-128.86 4.4766-9.3203 8.4844-18.855 12.004-28.578 12.531-32.227 29.695-76.359 46.391-78.109 33.172-3.6094 44.16 48.105 54.793 98.02 9.3008 43.688 18.09 84.949 40.906 88.234 20.586 2.9844 31.77-27.938 42.559-57.828 11.762-32.555 23.91-66.223 48.152-56.441 17.664 7.1172 23.547 29.238 29.23 50.641 7.0195 26.387 14.27 53.672 43.648 56.797 6.5977 0.66016 13.066-6.9023 19.891-14.953 8.0117-9.4531 17.125-20.188 28.086-18.934 23.254 2.6055 46.359 40.02 61.648 64.773l3.1367 5.0586-1.125 2.6875-3.1367-5.0703c-15.109-24.465-37.945-61.441-60.617-63.98-10.441-1.168-18.898 8.8008-27.07 18.441-7.0625 8.332-13.723 16.137-20.906 15.445-30.387-3.2305-37.879-31.41-45.125-58.664-5.75-21.629-11.184-42.059-28.02-48.844-23.098-9.2969-34.383 21.953-46.34 55.047-11.078 30.68-22.543 62.316-44.141 59.293-23.91-3.4414-33.32-47.633-42.418-90.367-10.391-48.797-21.137-99.316-53.055-95.891-15.875 1.668-32.75 45.059-45.07 76.742v0.003906c-3.5742 9.8711-7.6484 19.551-12.207 29.008-26.09 48-59.465 91.664-98.938 129.44z"/>
  <path d="m86.203 378.48-0.60547-2.9102c38.293-29.793 71.562-65.531 98.539-105.86 4.4414-7.5859 8.4492-15.422 12-23.469 12.523-26.449 29.672-62.672 46.293-64.109 33.09-2.8945 44.051 39.516 54.676 80.496 9.3047 35.883 18.094 69.777 40.992 72.477 20.727 2.5117 31.891-22.961 42.695-47.539 11.738-26.691 23.863-54.305 47.988-46.312 17.605 5.8242 23.484 23.992 29.172 41.562 7.0234 21.688 14.281 44.109 43.746 46.684 6.6758 0.55469 13.156-5.6797 20.004-12.312 7.9922-7.7383 17.023-16.566 27.973-15.5 23.184 2.1289 46.266 32.816 61.539 53.117l3.1445 4.1641-0.89453 2.6133-3.1562-4.1797c-15.121-20.109-37.977-50.496-60.703-52.578-10.508-1.0195-18.988 7.2383-27.184 15.176-7.043 6.8164-13.723 13.27-20.793 12.641-30.301-2.6484-37.789-25.777-45.023-48.141-5.75-17.77-11.188-34.555-28.082-40.145-23.215-7.6758-34.527 18.031-46.5 45.262-11.066 25.16-22.5 51.113-44.016 48.633-23.824-2.8164-33.234-39.105-42.336-74.199-10.395-40.086-21.156-81.613-53.168-78.77-15.957 1.3789-32.848 37.055-45.18 63.102v-0.003907c-3.6094 8.168-7.6836 16.121-12.203 23.824-27.082 40.484-60.477 76.363-98.918 106.28z"/>
  <path d="m86.129 361.1-0.46094-2.7031c37.277-23.562 70.551-52.926 98.57-86.98 4.4062-6.168 8.418-12.609 12.012-19.285 12.512-21.699 29.645-51.418 46.191-52.59 32.996-2.3047 43.949 32.445 54.57 66.078 9.3086 29.484 18.098 57.332 41.078 59.566 20.816 2.0664 31.992-18.895 42.816-39.109 11.715-21.887 23.82-44.523 47.848-37.988 17.547 4.7695 23.422 19.68 29.105 34.098 7.0273 17.832 14.293 36.27 43.836 38.391v0.003906c7.6836-0.91406 14.801-4.5078 20.094-10.148 7.3789-7.5742 17.332-12.105 27.887-12.703 23.133 1.7461 46.195 26.926 61.457 43.598l3.1367 3.4141-0.70703 2.4961-3.1445-3.4219c-15.137-16.535-38.016-41.516-60.801-43.23h0.003906c-10.359 0.52344-20.121 4.9961-27.277 12.496-5.4492 5.8047-12.789 9.4766-20.703 10.355-30.234-2.1758-37.711-21.148-44.945-39.508-5.7578-14.609-11.199-28.402-28.148-33.016-23.316-6.3203-34.645 14.824-46.641 37.227-11.047 20.637-22.484 41.914-43.895 39.895-23.742-2.3086-33.152-32.102-42.25-60.914-10.398-32.941-21.148-66.898-53.273-64.73-16.023 1.1328-32.93 30.465-45.273 51.875-3.6484 6.7734-7.7227 13.309-12.199 19.562-28.109 34.168-61.492 63.629-98.887 87.273z"/>
  <path d="m86.074 346.8-0.35156-2.4961c36.324-18.641 69.574-42.742 98.598-71.457 4.3594-5.0078 8.375-10.305 12.023-15.855 12.496-17.801 29.609-42.184 46.102-43.145 32.867-1.9258 43.855 26.633 54.465 54.238 9.3125 24.234 18.113 47.125 41.164 48.961 20.863 1.6875 32.078-15.531 42.918-32.172 11.695-17.945 23.781-36.488 47.727-31.156l0.003906 0.003906c13.859 3.6758 24.84 14.246 29.035 27.961 2.8945 9.3203 8.7461 17.445 16.672 23.145 7.9258 5.6953 17.492 8.6562 27.25 8.4336 7.4258-0.63281 14.469-3.5508 20.168-8.3516 7.8945-6.3945 17.656-10.051 27.812-10.414 23.602 5.4883 45.004 17.961 61.41 35.797l3.1094 2.7812-0.54688 2.3516-3.1133-2.7812c-16.199-17.789-37.449-30.199-60.902-35.559-10.012 0.25391-19.648 3.875-27.355 10.281-5.832 4.8906-13.035 7.8516-20.621 8.4844-9.9805 0.19922-19.75-2.8555-27.84-8.6992-8.0898-5.8438-14.062-14.16-17.012-23.695-5.7656-12.012-11.211-23.363-28.219-27.16-23.398-5.2461-34.746 12.184-46.762 30.621-11.031 16.918-22.445 34.348-43.793 32.723-23.672-1.8906-33.074-26.348-42.164-49.996-10.406-27.074-21.148-55.207-53.371-53.199-16.082 0.92969-33.004 25.039-45.359 42.648-3.6953 5.6211-7.7695 10.984-12.191 16.055-29.098 28.793-62.438 52.957-98.855 71.652z"/>
 </g>
</svg>
